Coordinates
version=1
nRows=22
nColumns=32
inDegrees=yes

Units are S.I. units (second, meters, Newtons, ...)
If the header above contains a line with 'inDegrees', this indicates whether rotational values are in degrees (yes) or radians (no).

endheader
time	pelvis_tilt	pelvis_list	pelvis_rotation	pelvis_tx	pelvis_ty	pelvis_tz	hip_flexion_r	hip_adduction_r	hip_rotation_r	knee_angle_r	knee_adduction_r	med_cond_adduction_r	lat_cond_adduction_r	patella_r_constrained_knee_angle	ankle_angle_r	subtalar_angle_r	mtp_angle_r	hip_flexion_l	hip_adduction_l	hip_rotation_l	knee_angle_l	knee_adduction_l	med_cond_adduction_l	lat_cond_adduction_l	patella_l_constrained_knee_angle	ankle_angle_l	subtalar_angle_l	mtp_angle_l	lumbar_extension	lumbar_bending	lumbar_rotation
      0.88500000	     -8.89023048	      3.26727696	     -2.71629205	      0.22313231	      0.88559699	     -1.21221730	     24.43273502	    -26.73865747	    -21.82387719	    -26.63965238	      2.64710946	      0.00000000	      0.00000000	     -0.46494965	     -1.67335666	      3.91607112	      0.00000000	     20.96994587	    -20.71922122	    -36.21012396	    -24.61708817	     -2.01276953	     -0.00000000	     -0.00000000	     -0.42964924	     -0.64657443	     17.84824071	     -0.00000000	     -1.84312140	     -2.21084690	      2.17978791
      0.89000000	     -9.17011840	      3.24102968	     -2.75785725	      0.22200813	      0.88386753	     -1.21204730	     25.25516042	    -26.83978153	    -21.34776033	    -27.40866299	      2.78618630	     -0.00000000	     -0.00000000	     -0.47837141	     -1.40787717	      3.74468507	     -0.00000000	     21.70168888	    -21.09722471	    -36.04893901	    -25.49497563	     -1.93278182	     -0.00000000	     -0.00000000	     -0.44497127	     -0.32114680	     17.85546575	     -0.00000000	     -1.77499527	     -2.17718010	      2.26093793
      0.89500000	     -9.48574653	      2.99865961	     -2.81463211	      0.22086856	      0.88200141	     -1.21180813	     26.04895052	    -26.65906697	    -21.01089909	    -28.12664034	      2.83466341	      0.00000000	      0.00000000	     -0.49090248	     -1.15174250	      3.62843056	      0.00000000	     22.53688492	    -21.81161912	    -35.82209519	    -26.55466409	     -1.75183189	     -0.00000000	     -0.00000000	     -0.46346632	      0.07973581	     17.88090998	      0.00000000	     -1.65718071	     -1.96716906	      2.18001776
      0.90000000	     -9.73481428	      3.01729284	     -2.84473223	      0.21972387	      0.88021861	     -1.21169754	     26.83148971	    -26.83281536	    -20.49134597	    -28.88057428	      3.04738349	     -0.00000000	     -0.00000000	     -0.50406111	     -0.89261428	      3.39078532	      0.00000000	     23.24359943	    -22.11470572	    -35.63111264	    -27.40737241	     -1.69018849	     -0.00000000	      0.00000000	     -0.47834889	      0.39230811	     17.86608406	     -0.00000000	     -1.63618038	     -1.93514553	      2.32158234
      0.90500000	    -10.01169079	      2.90060079	     -2.90091608	      0.21856712	      0.87828975	     -1.21146448	     27.63925481	    -26.82667605	    -20.11040813	    -29.66089413	      3.15276188	      0.00000000	     -0.00000000	     -0.51768026	     -0.59453633	      3.30411053	      0.00000000	     24.00710986	    -22.64724688	    -35.39294319	    -28.36577098	     -1.53647691	     -0.00000000	     -0.00000000	     -0.49507610	      0.73895722	     17.86491211	     -0.00000000	     -1.57839019	     -1.79705076	      2.39790354
      0.91000000	    -10.29615087	      2.76371396	     -2.94483057	      0.21743484	      0.87627938	     -1.21131721	     28.43293644	    -26.81247101	    -19.71302364	    -30.42784403	      3.30305573	     -0.00000000	     -0.00000000	     -0.53106606	     -0.32502240	      3.12553695	      0.00000000	     24.80302634	    -23.20298201	    -35.14015940	    -29.36447889	     -1.38433792	     -0.00000000	     -0.00000000	     -0.51250684	      1.11624571	     17.87191947	      0.00000000	     -1.49929894	     -1.64913921	      2.41138157
      0.91500000	    -10.53598131	      2.79231830	     -2.98873782	      0.21629709	      0.87430923	     -1.21112118	     29.25291845	    -27.00565048	    -19.29147018	    -31.25333446	      3.46001426	      0.00000000	      0.00000000	     -0.54547359	      0.00745315	      3.16439073	     -0.00000000	     25.48619113	    -23.51843428	    -34.91430310	    -30.20740074	     -1.26881739	     -0.00000000	     -0.00000000	     -0.52721860	      1.42909132	     17.83281783	     -0.00000000	     -1.48363068	     -1.66864250	      2.51570454
      0.92000000	    -10.77334024	      2.42515397	     -3.03121292	      0.21516017	      0.87231178	     -1.21093646	     29.88281110	    -26.71075179	    -19.15922665	    -31.93588941	      3.48205846	      0.00000000	      0.00000000	     -0.55738642	      0.27514877	      3.10268193	      0.00000000	     26.28797580	    -24.37423942	    -34.50619950	    -31.28942699	     -1.00742234	      0.00000000	      0.00000000	     -0.54610352	      1.78883613	     17.84476806	      0.00000000	     -1.48740535	     -1.26426506	      2.47824922
      0.92500000	    -11.07695932	      2.51007043	     -3.12517216	      0.21394357	      0.87008506	     -1.21064029	     30.84306325	    -26.92460443	    -18.55941276	    -32.78950122	      3.69486025	      0.00000000	      0.00000000	     -0.57228476	      0.56819922	      2.99297167	      0.00000000	     27.02316405	    -24.65845362	    -34.32950780	    -32.13020318	     -0.89999208	      0.00000000	      0.00000000	     -0.56077783	      2.12542922	     17.82577964	      0.00000000	     -1.37797349	     -1.36386612	      2.61304409
      0.93000000	    -11.35792371	      2.40701157	     -3.20004327	      0.21274438	      0.86785006	     -1.21039490	     31.68265530	    -26.92316096	    -18.17675030	    -33.58584953	      3.80696488	      0.00000000	      0.00000000	     -0.58618366	      0.85885993	      2.92314510	     -0.00000000	     27.80755239	    -25.18368248	    -34.04848289	    -33.08900938	     -0.73173478	      0.00000000	      0.00000000	     -0.57751216	      2.46527876	     17.81273264	     -0.00000000	     -1.30486310	     -1.29190408	      2.61757888
      0.93500000	    -11.57740889	      2.42197720	     -3.26037886	      0.21160373	      0.86570987	     -1.21016277	     32.49087500	    -27.07926372	    -17.76852238	    -34.40646528	      3.95582447	     -0.00000000	      0.00000000	     -0.60050610	      1.15101045	      2.93454055	      0.00000000	     28.46775604	    -25.53218889	    -33.80705533	    -33.92824910	     -0.59227569	     -0.00000000	     -0.00000000	     -0.59215966	      2.76881244	     17.79146323	      0.00000000	     -1.31207974	     -1.28193565	      2.76104430
      0.94000000	    -11.85560045	      2.36080100	     -3.33988676	      0.21040003	      0.86336839	     -1.20989653	     33.35755117	    -27.12178350	    -17.37892976	    -35.22939926	      4.06581215	     -0.00000000	      0.00000000	     -0.61486901	      1.46787534	      2.93691879	     -0.00000000	     29.23832270	    -26.00627793	    -33.53805700	    -34.85465323	     -0.43015765	     -0.00000000	     -0.00000000	     -0.60832846	      3.10393279	     17.79247109	      0.00000000	     -1.23347620	     -1.28930670	      2.72753382
      0.94500000	    -12.09345551	      2.25382104	     -3.42821977	      0.20921298	      0.86110357	     -1.20959322	     34.14777017	    -27.09086858	    -17.04195425	    -36.00374269	      4.14282887	     -0.00000000	     -0.00000000	     -0.62838385	      1.75952777	      2.89539924	      0.00000000	     29.95631513	    -26.53047118	    -33.24141708	    -35.75745731	     -0.24677365	     -0.00000000	     -0.00000000	     -0.62408536	      3.41257006	     17.78042766	     -0.00000000	     -1.22289595	     -1.14812570	      2.85650142
      0.95000000	    -12.34009542	      2.26768025	     -3.48756011	      0.20801041	      0.85871667	     -1.20928303	     35.02817678	    -27.22694061	    -16.68530647	    -36.88850098	      4.24025857	     -0.00000000	      0.00000000	     -0.64382580	      2.11496980	      2.90551153	      0.00000000	     30.67882914	    -26.88639652	    -33.00932497	    -36.60737196	     -0.14268430	      0.00000000	     -0.00000000	     -0.63891917	      3.68310912	     17.78627405	     -0.00000000	     -1.17994780	     -1.20636108	      2.91121392
      0.95500000	    -12.43174487	      1.72131282	     -3.35070350	      0.20701980	      0.85685808	     -1.20966347	     35.22260781	    -26.88369328	    -17.07939955	    -37.38784176	      4.13072909	     -0.00000000	     -0.00000000	     -0.65254094	      2.31931117	      3.20206497	      0.00000000	     31.47537517	    -27.71997039	    -32.17401412	    -37.59032513	      0.12568301	     -0.00000000	     -0.00000000	     -0.65607494	      4.03407349	     17.78672266	     -0.00000000	     -1.34262132	     -0.94002058	      1.98392883
      0.96000000	    -12.78066612	      2.23142460	     -3.66389960	      0.20569935	      0.85408966	     -1.20874046	     36.64046637	    -27.34820606	    -15.92826670	    -38.44399893	      4.38468623	      0.00000000	      0.00000000	     -0.67097436	      2.67176818	      3.07567433	     -0.00000000	     32.00966868	    -27.68434091	    -32.52767887	    -38.28306770	      0.15085196	     -0.00000000	     -0.00000000	     -0.66816558	      4.30670890	     17.78512500	     -0.00000000	     -1.17455298	     -1.16364607	      3.13266221
      0.96500000	    -13.02562428	      2.22971423	     -3.73726288	      0.20446369	      0.85166707	     -1.20848112	     37.49211577	    -27.41213860	    -15.56891880	    -39.23611554	      4.43095466	     -0.00000000	     -0.00000000	     -0.68479940	      2.97624780	      3.10721892	     -0.00000000	     32.73592761	    -28.03465968	    -32.29636958	    -39.10976331	      0.22101299	     -0.00000000	     -0.00000000	     -0.68259414	      4.59975375	     17.78133637	     -0.00000000	     -1.14399946	     -1.16152648	      3.23733275
      0.97000000	    -13.21807490	      2.15949071	     -3.82798817	      0.20335777	      0.84929862	     -1.20818175	     38.24005578	    -27.41085273	    -15.25530496	    -40.00569799	      4.48333657	     -0.00000000	     -0.00000000	     -0.69823115	      3.25009798	      3.15219021	      0.00000000	     33.37897654	    -28.50830618	    -32.03943043	    -39.95019032	      0.39194739	     -0.00000000	     -0.00000000	     -0.69726236	      4.88890931	     17.81389185	     -0.00000000	     -1.17257323	     -1.10553254	      3.31111775
      0.97500000	    -13.35995232	      2.09795708	     -3.87830012	      0.20228109	      0.84708609	     -1.20797486	     38.88881171	    -27.44094254	    -15.04356128	    -40.72835765	      4.50147439	      0.00000000	      0.00000000	     -0.71084394	      3.53614441	      3.24647725	     -0.00000000	     33.97762983	    -28.89410420	    -31.76367014	    -40.72237301	      0.49463806	      0.00000000	      0.00000000	     -0.71073949	      5.15566633	     17.85051309	      0.00000000	     -1.27018345	     -1.06676540	      3.33576628
      0.98000000	    -13.58995682	      1.69214429	     -3.78309584	      0.20115022	      0.84460095	     -1.20821305	     39.41282965	    -27.24206017	    -15.30388057	    -41.42968752	      4.40543543	      0.00000000	      0.00000000	     -0.72308446	      3.83109841	      3.50093678	      0.00000000	     34.94991456	    -29.58894671	    -31.05419228	    -41.70602524	      0.65936869	      0.00000000	      0.00000000	     -0.72790746	      5.47384062	     17.87366047	      0.00000000	     -1.23534517	     -0.90366014	      2.59625877
      0.98500000	    -13.79895644	      1.92041045	     -4.05152683	      0.19991871	      0.84214369	     -1.20742891	     40.43532313	    -27.34702049	    -14.50091805	    -42.23790332	      4.50571790	     -0.00000000	     -0.00000000	     -0.73719048	      4.04509504	      3.32619403	     -0.00000000	     35.40110096	    -29.82171401	    -31.22331934	    -42.38416692	      0.70757160	      0.00000000	      0.00000000	     -0.73974326	      5.68633697	     17.90762142	     -0.00000000	     -1.26749680	     -0.83433667	      3.55927996
      0.99000000	    -14.06531765	      1.31008789	     -3.76685138	      0.19883030	      0.83961487	     -1.20819839	     40.75537015	    -27.10545909	    -15.16250937	    -42.84667376	      4.37050264	      0.00000000	      0.00000000	     -0.74781553	      4.31874014	      3.64289726	     -0.00000000	     36.65889330	    -30.51954670	    -30.15126214	    -43.41308434	      0.75468597	      0.00000000	     -0.00000000	     -0.75770126	      6.00870172	     17.95119483	     -0.00000000	     -1.20577108	     -0.42882757	      2.52540678
